<?xml version="1.0" encoding="utf-8"?>
<!-- Generator: Adobe Illustrator 21.0.2, SVG Export Plug-In . SVG Version: 6.00 Build 0)  -->
<svg version="1.1" id="_x33_50739a3-2748-429c-9318-88634c23ea2f"
	 xmlns="http://www.w3.org/2000/svg" xmlns:xlink="http://www.w3.org/1999/xlink" x="0px" y="0px" viewBox="0 0 690 750"
	 style="enable-background:new 0 0 690 750;" xml:space="preserve">
<style type="text/css">
	.st0{fill:url(#SVGID_1_);}
	.st1{fill:#BFBFBF;}
	.st2{fill:#686868;}
	.st3{fill:#615868;}
	.st4{fill:#46404C;}
	.st5{fill:url(#SVGID_2_);}
	.st6{fill:#70411B;}
	.st7{fill:url(#SVGID_3_);}
	.st8{fill:#563017;}
	.st9{fill:url(#SVGID_4_);}
	.st10{fill:url(#SVGID_5_);}
	.st11{fill:#D0BDC4;}
	.st12{fill:url(#SVGID_6_);}
	.st13{fill:#330808;}
	.st14{fill:#2D0202;}
	.st15{fill:#002E4E;stroke:#002E4E;stroke-width:1.12;stroke-miterlimit:10;}
	.st16{fill:url(#SVGID_7_);}
	.st17{fill:url(#SVGID_8_);}
	.st18{fill:#D8CBD0;}
	.st19{fill:#A7A8B5;}
	.st20{fill:url(#SVGID_9_);}
	.st21{fill:#280B0B;}
	.st22{fill:url(#SVGID_10_);}
	.st23{fill:url(#SVGID_11_);}
	.st24{fill:url(#SVGID_12_);}
	.st25{fill:url(#SVGID_13_);}
	.st26{fill:url(#SVGID_14_);}
	.st27{fill:url(#SVGID_15_);}
</style>
<title>working woman</title>
<linearGradient id="SVGID_1_" gradientUnits="userSpaceOnUse" x1="454.235" y1="-54" x2="454.235" y2="175.31" gradientTransform="matrix(1 0 0 -1 -255 677)">
	<stop  offset="0" style="stop-color:#808080;stop-opacity:0.25"/>
	<stop  offset="0.54" style="stop-color:#808080;stop-opacity:0.12"/>
	<stop  offset="1" style="stop-color:#808080;stop-opacity:0.1"/>
</linearGradient>
<path class="st0" d="M269.2,501.7H129.3c-14.4,0-26.2,10.9-26.2,24.3v27.4c0.1,1.2,1.1,2.2,2.4,2.2h46.9c-3.2-0.1-5.9,2.4-6,5.6v2.6
	c0.1,3.2,2.8,5.7,6,5.6h23v143.1h-34.3c-4.4,0-8.1,3.4-8.1,7.5v3.5c0,4.1,3.6,7.5,8.1,7.5h122.3c4.4,0,8.1-3.4,8.1-7.5V720
	c0-4.1-3.6-7.5-8.1-7.5H223v-84.6h29.1c3.7,0.1,6.9-2.8,7.1-6.5v-3.1c-0.2-3.7-3.3-6.7-7-6.5H223v-42.3h24.8c3.2,0.1,5.9-2.4,6-5.6
	v-2.6c-0.1-3.2-2.8-5.7-6-5.6H293c1.2,0,2.3-0.9,2.3-2.2V526C295.3,512.6,283.6,501.7,269.2,501.7z"/>
<path id="_x31_ae8be24-bc05-4fdd-8e2e-97717234ca3e" class="st1" d="M208.7,607.5h43.4c2.9,0,5.2,2.4,5.2,5.2v5.6
	c0,2.9-2.4,5.2-5.2,5.2h-43.4c-2.9,0-5.2-2.4-5.2-5.2v-5.6C203.5,609.8,205.8,607.5,208.7,607.5z"/>
<path id="ea36bd22-9cd6-47e2-b85e-642ef326de2e" class="st1" d="M191,524.6h19.1c7.2,0,13,5.8,13,13v175.9c0,7.2-5.8,13-13,13H191
	c-7.2,0-13-5.8-13-13V537.6C178,530.4,183.8,524.6,191,524.6z"/>
<path id="cc9c0523-5ba7-4ef5-a4a7-dc9938e8067e" class="st2" d="M129,497.7h143.2c10.8,0,19.5,8.7,19.5,19.5l0,0v32.5
	c0,1-0.8,1.8-1.8,1.8H111.2c-1,0-1.8-0.8-1.8-1.8v-32.5C109.5,506.4,118.2,497.7,129,497.7C129,497.7,129,497.7,129,497.7z"/>
<path id="aa3b4f98-38f9-44a2-89c3-c74ddcab3699" class="st3" d="M154.9,551.4h93c2.5,0,4.5,2,4.5,4.5v4.8c0,2.5-2,4.5-4.5,4.5h-93
	c-2.5,0-4.5-2-4.5-4.5v-4.8C150.4,553.4,152.4,551.4,154.9,551.4z"/>
<path id="_x34_c7f51d0-c2f5-432e-a9e1-ccfdf3b3c539" class="st4" d="M143.9,708h119.2c3.3,0,6,2.7,6,6v6.4c0,3.3-2.7,6-6,6H143.9
	c-3.3,0-6-2.7-6-6V714C137.9,710.7,140.6,708,143.9,708z"/>
<linearGradient id="SVGID_2_" gradientUnits="userSpaceOnUse" x1="405.235" y1="438.7946" x2="405.235" y2="676.94" gradientTransform="matrix(1 0 0 -1 -255 677)">
	<stop  offset="0" style="stop-color:#808080;stop-opacity:0.25"/>
	<stop  offset="0.54" style="stop-color:#808080;stop-opacity:0.12"/>
	<stop  offset="1" style="stop-color:#808080;stop-opacity:0.1"/>
</linearGradient>
<path class="st5" d="M284.1,93.9c-8.5,4.5-20.1,3.4-27.5-2.6s-9.9-16.5-6-24.8c-32.8-8.5-64.4-21.3-93.9-38
	c-9.6-5.4-20.9-11.5-31.3-7.7c-6.2,2.2-13,7.8-18.5,4.3c-3.5-2.2-3.8-6.8-6.2-9.9c-4.5-6-14.1-5.2-22-5s-18.1-2.9-18-10.2
	c-2.6,5.8-1,12.5,3.8,16.6c5.2,4.1,12.3,5,18.3,2.2l5.6,14.8c-22.5,3.3-41.6,20.9-45.2,41.5s8.8,42.8,29,52.3
	c-10.3-2.7-20.7,3.5-29.3,9.3L0,165.6c16.3,4,35-2,45.1-14.5c2.4-2.9,4.8-6.5,8.7-6.9c4.6-0.5,8.2,3.6,12.6,5
	c6.3,2.1,12.9-1.6,19.1-4c14.2-5.3,30.1-4.2,43.5,3c12.9,7.2,21.7,20.2,23,34c0.5,5.2,0,10.7,2.2,15.5c1.8,4,5.3,7.1,7.6,10.9
	c3.7,6,4.3,13.2,7.3,19.5s10.5,12,17.5,9.5c-3.4,0.5-5.4-3.6-4.6-6.7s3.1-5.6,3.7-8.7c1-4.8-2.4-9.4-5.1-13.6
	c-4.2-6.9-7.2-14.4-8.9-22.3c13.7,7.7,29.9,12,46,13c3.7,0.2,7.5,0.3,11-0.9s6.6-3.8,7.1-7.2c0.3-2-0.3-4.1,0.3-6.1
	c0.9-3,4.4-4.7,6.5-7.3c1.7-2.2,1.1-6.1-1.2-6.9c3-0.5,4.5-4.6,3.9-7.8c-0.7-3.6-2.5-7.6-0.2-10.5c1.8-2.3,5.5-3.1,6.7-5.8
	c1.6-3.7-3.1-6.9-6.3-9.6c-8.4-7.2-8.4-19.3-6.9-29.8c0.4-2.7,0.9-5.5,1.2-8.3c8.3,3.7,17.9,3.4,26.1-0.7l1.1,8.7
	c4.4,1,7.9,4.1,9.3,8.4h24.1C289.7,114.5,281.5,103.6,284.1,93.9z"/>
<path id="_x36_720e991-48ce-4b6f-bf66-be2a7100720d" class="st6" d="M166.4,80.4c9.7-7.5,20.5-14.4,32.9-16.5s26.9,2.1,32.8,12.4
	c5.1,8.9,2.9,19.6,1.4,29.6s-1.5,21.5,6.5,28.3c3,2.6,7.5,5.6,6,9.2c-1.1,2.5-4.7,3.2-6.4,5.5c-2.1,2.8-0.5,6.6,0.2,10
	s-1.4,8.1-5,7.3c3.2-0.7,4.4,4.1,2.5,6.6s-5.2,4-6.1,7c-0.6,1.9,0,3.9-0.3,5.8c-0.5,3.2-3.4,5.8-6.8,6.9s-6.9,1-10.5,0.8
	c-24.6-1.6-49.4-11.1-64.2-29.2C126,135.5,139.1,101.4,166.4,80.4z"/>
<linearGradient id="SVGID_3_" gradientUnits="userSpaceOnUse" x1="494.9985" y1="267.72" x2="494.9985" y2="486.8837" gradientTransform="matrix(1 0 0 -1 -255 677)">
	<stop  offset="0" style="stop-color:#808080;stop-opacity:0.25"/>
	<stop  offset="0.54" style="stop-color:#808080;stop-opacity:0.12"/>
	<stop  offset="1" style="stop-color:#808080;stop-opacity:0.1"/>
</linearGradient>
<path class="st7" d="M357.7,211.4c-0.2-3.5-2.5-5.3-4.8-4.7s-4.5,3.1-6.3,6c-0.8,1.3-1.5,2.6-2.2,3.9c-5.8-0.4-12.1,2.9-17.4,9.1
	c-5.6,6.7-9.8,16.7-11.2,26.7c-0.2,1.3-0.4,2.6-0.7,3.9c-28.1,31.8-67.4,66.3-99.1,96l0.1-2.5c-9.6-44.1-36.2-84.2-44-128.6
	c-1.6-9-2.8-18.8-9.8-25.4c-8.4-7.8-23.8-7.8-32.7-0.5c-10.8,8.9-7.3,19.4-4.3,30.3c6.9,25.1,12.8,49.3,22.7,73.8
	c9.7,23.9,20.1,47.8,26.8,72.6c2.5,9.5,4.7,19.4,11.3,27.2c5.5,6.5,15.1,10.8,23.7,9.3v0.6c1.3-0.4,2.5-1,3.7-1.6
	c0.5-0.2,0.9-0.4,1.3-0.6v-0.2c3-2.1,5.7-4.5,8.1-7.2l50.9-52.6l56-57.8c2.3-2.2,4.4-4.7,6.2-7.4c1-1.1,2.1-2.2,3.1-3.3
	c4.7-5,8.6-10.6,11.6-16.7c3.1-6.6,5.1-14.7,4.2-21.6c-0.3-1.4-0.3-2.8-0.2-4.1c0.4-2.3,2-4.3,2.3-6.6c0.4-2.5-0.8-4.4-1-6.8
	C355.8,219.1,357.9,215,357.7,211.4z"/>
<path id="_x37_052da1e-4b21-4f06-90d1-56ef790211c9" class="st8" d="M315.3,244.9c1.3-9.8,5.2-19.5,10.5-26s11.9-9.8,17.7-8.8
	c1.6,0.2,3.1,1,4.2,2.2c1.3,1.8,1.9,4,1.7,6.2c-5,1.4-9.9,3.4-14.5,5.9c-3.5,1.7-6.7,4-9.4,6.8c-3.3,3.5-5.8,7.8-7.1,12.4
	c-0.6,2.6-1.3,5.2-2.2,7.7c-0.7,1.7-2.2,4-3.4,3.7c0.3-1.3,0.7-2.6,1.3-3.9C314.6,249.1,315.1,247,315.3,244.9z"/>
<linearGradient id="SVGID_4_" gradientUnits="userSpaceOnUse" x1="659.1539" y1="-73.0139" x2="659.1539" y2="241.149" gradientTransform="matrix(1 0 0 -1 -255 677)">
	<stop  offset="0" style="stop-color:#808080;stop-opacity:0.25"/>
	<stop  offset="0.54" style="stop-color:#808080;stop-opacity:0.12"/>
	<stop  offset="1" style="stop-color:#808080;stop-opacity:0.1"/>
</linearGradient>
<path class="st9" d="M515.5,731l-15.2-17.2c-1.5-1.6-2.8-3.4-3.9-5.3c-1.4-3-1.4-6.3-1.4-9.5c0-19.7,0.4-39.5,1-59.2
	c1.2-34.7,3.3-69.3,6.4-103.8c1.3-14.3,4.8-29.6,5.2-44.1l3.6-3.5c6.1-5.9,12.2-12,15.8-19.4s3.9-16.5-1.2-23.1
	c-7.4-9.4-22.3-10.2-35.1-10l-85.7,0.9l-42.8,0.4c-2.9,0-34.8-1.8-34.1-0.3c3.3,6.9,1.1,14.8,0.2,22.2s0.5,16.5,7.9,19.9
	c3.3,1.6,7.2,1.7,11,1.7l111.5,1.9l-3.4,3.7c-29.3,1.2-58.7,2.3-87.9,0.2c-7.1-0.5-18.5-3.4-23.1,3.3c-6.2,9.1,4.4,18.5,13.3,21
	c6,1.7,10.6,7.3,16.9,7.4c18.2,0,22.5-2.6,40.7-2.5c-26,28-36.2,53.1-62.2,81.2c-13.4,14.5-27.3,29.3-45.7,38.3
	c-7.6,3.7-15.9,6.5-22,11.9s-8.9,15-3.4,20.9c3.6,3.8,9.7,5.2,13.2,9c8.2,8.9-2.8,22.4,0.3,33.7c1.9,7,9.2,11.9,16.9,13.7
	s15.8,1.2,23.8,0.6c3.9-0.3,7.9-0.7,11.2-2.5s11.9-7.1,10.6-10.3c-2.3-5.4-6.3-9.8-11.5-12.7c-5.2-2.9-10-4.6-10.2-10.1
	c-0.5-22.5,14.8-34.1,31.8-50.7c36.3-35.4,60.5-64.7,96.8-100.1c-3.4,46.4-5.7,81.5-6.4,128c-0.2,10.9-1.8,20.3-8.9,29.1
	c-5.4,6.8-12.1,12-11.5,20.3c0.7,8.5,16.5,15.3,25,19c7.3,3.2,14.3,7.2,21.8,10.1c9.4,3.5,19.4,5.2,29.5,5.1c4.6,0,8.3-3.8,8.3-8.4
	c0-2.2-0.9-4.3-2.5-5.9C518.4,734.2,516.9,732.5,515.5,731z"/>
<path id="_x32_8e42494-b735-43b2-9937-17aee1b58b01" class="st6" d="M489.9,695c0,3.1,0,6.2,1.3,9.1c1,1.9,2.2,3.6,3.7,5.1
	l14.3,16.6c2.6,3.1,5.5,6,8.6,8.5c2.3,1.8,2.7,5.1,0.9,7.4c-0.9,1.1-2.1,1.8-3.5,2c-11.9,1.3-23.9-0.2-35-4.5
	c-7.1-2.8-13.6-6.6-20.5-9.7c-8-3.6-18-7.8-18.6-15.9c-0.6-8,8.2-13.4,13.3-19.9c6.7-8.6,6.9-19.8,7.1-30.4
	c0.8-54.9,4.8-109.7,8.9-164.5c0.3-3.8,0.6-7.8,2.8-11c5.7-8.7,28.1-11.2,28.6,1.5c0.7,15.7-3.5,32.7-4.8,48.5
	c-2.9,33.3-4.9,66.7-6,100.1C490.3,656.9,489.9,676,489.9,695z"/>
<path id="_x33_f1bacaa-d88a-4b56-af1e-375f8267b0c5" class="st6" d="M452.9,489.9c6.2-0.3,12.5-0.5,18.5,0.7s12,4.2,15.2,9
	s3.2,11.7-1.1,15.8l-107.7-0.3c-5.9,0-12,0-17.6-1.7c-8.4-2.4-18.4-11.5-12.5-20.2c4.3-6.4,15-3.6,21.7-3.1
	C397.2,492.2,425.1,491.1,452.9,489.9z"/>
<path id="_x33_c9c89b7-12bf-4c61-be7e-c89d9115da7d" class="st6" d="M485.7,441.2c12.1-0.1,26.1,0.6,33.1,9.7
	c4.9,6.3,4.5,15.1,1.2,22.3s-9.1,13-14.9,18.7L365.6,631.4c-16,16-33,34.3-32.5,56.1c0.1,5.3,1.8,11.2,6.7,14s12.8,2.6,14.9,7.6
	c1.3,3.2-0.9,6.8-4,8.5s-6.9,2.1-10.5,2.4c-7.5,0.6-15.2,1.2-22.4-0.5s-14.1-6.5-15.9-13.2c-2.9-10.8,7.4-23.8-0.3-32.5
	c-3.3-3.7-9.1-5-12.4-8.7c-5.2-5.7-2.5-14.8,3.2-20.1s13.6-7.9,20.7-11.5c17.3-8.7,30.4-23,43-37l99.5-110l-105-1.8
	c-3.5-0.1-7.2-0.2-10.4-1.7c-7-3.3-8.3-12-7.5-19.2s3-14.8-0.2-21.4c-0.7-1.4,29.4,0.3,32.1,0.3l40.4-0.5L485.7,441.2z"/>
<g id="_x34_74b98a1-190c-4566-9beb-ffed98568861">
	
		<linearGradient id="SVGID_5_" gradientUnits="userSpaceOnUse" x1="495.5735" y1="152.4351" x2="495.5735" y2="307.0648" gradientTransform="matrix(1 0 0 -1 -255 677)">
		<stop  offset="0" style="stop-color:#808080;stop-opacity:0.25"/>
		<stop  offset="0.54" style="stop-color:#808080;stop-opacity:0.12"/>
		<stop  offset="1" style="stop-color:#808080;stop-opacity:0.1"/>
	</linearGradient>
	<path class="st10" d="M214.6,374.6c4.2,3.9,5.4,9.8,5,15.4s-2.1,10.9-3,16.3c-1.3,8,0.2,17.6,7.5,21.7c4.3,2.4,9.6,2.4,14.6,2.2
		l116-3.1c3.9-0.1,8.5,0,10.9,3c1.7,2.1,1.8,5,1.8,7.6l0.4,82c-37.8-0.5-75.5,0.5-113.2,3c-32,2.1-65.8,5-94.5-8.5
		c-23.5-11.1-40.9-33-45.6-57.4s3.3-50.8,21.1-69.1c10.1-10.4,22.5-17.3,37.4-15.3C186,374.2,203.7,364.5,214.6,374.6z"/>
</g>
<path id="de0f5c02-982e-4d07-abeb-5972028f19d6" class="st11" d="M214.6,381c4,3.6,5.2,9.2,4.9,14.4s-2,10.2-2.9,15.3
	c-1.2,7.5,0.2,16.4,7.2,20.3c4.2,2.3,9.3,2.2,14.1,2.1l112-2.9c3.8-0.1,8.2,0,10.5,2.8c1.7,2,1.8,4.6,1.8,7.1l0.4,76.6
	c-36.5-0.4-72.9,0.5-109.3,2.8c-30.9,2-63.5,4.7-91.2-8c-22.6-10.3-39.5-30.8-44-53.7s3.2-47.5,20.4-64.6
	c9.8-9.7,21.7-16.2,36.1-14.3C187,380.6,204.1,371.6,214.6,381z"/>
<linearGradient id="SVGID_6_" gradientUnits="userSpaceOnUse" x1="434.5042" y1="286.7032" x2="434.5042" y2="490.3415" gradientTransform="matrix(1 0 0 -1 -255 677)">
	<stop  offset="0" style="stop-color:#808080;stop-opacity:0.25"/>
	<stop  offset="0.54" style="stop-color:#808080;stop-opacity:0.12"/>
	<stop  offset="1" style="stop-color:#808080;stop-opacity:0.1"/>
</linearGradient>
<path class="st12" d="M235.5,268.3c-4.8-7.4-12.7-13.3-19.8-19.5s-13.7-13.4-14.8-21.5c-0.5-3.4,0-7-1.9-10.1
	c-2.1-3.5-6.8-5.6-11.2-7.5c-1.6-0.7-4-1.8-7-3.2c-9.6-11.1-22.5-21.7-38.1-19.6s-24.5,17.7-23,31.2s10.1,25.5,17,37.7l0.4,0.7
	c-2.8,43.4-2.4,86.9,1.4,130.3c18.5,3,37.2,4.1,55.9,3.3c7.4-0.3,15.5-1.1,20.6-5.1c4.5-3.5,5.8-8.6,6.7-13.4
	c3.7-19.9,4.1-40.3,1.2-60.4c-0.5-3.2-1-6.6,0.6-9.6c2.1-4,7.6-6.5,11.1-10C241.3,285.1,240.3,275.7,235.5,268.3z"/>
<path id="_x33_b5bb8ef-3798-47b9-ad8e-77eb1f199cc8" class="st3" d="M185.9,209.7c4.1,1.9,8.4,4,10.4,7.5c1.8,3.1,1.3,6.7,1.8,10.1
	c1,8.1,7.1,15.3,13.7,21.5s13.9,12.2,18.3,19.5s5.4,16.8-0.8,23.3c-3.3,3.5-8.3,5.9-10.3,10c-1.5,3-1,6.4-0.5,9.6
	c2.7,20.1,2.4,40.4-1.1,60.4c-0.8,4.8-2,9.9-6.2,13.4c-4.8,4-12.3,4.8-19.1,5.1c-17.3,0.8-34.7-0.3-51.7-3.3
	c-4.3-54.2-3.9-108.6,1.2-162.6c0.5-5.8,0.9-24.7,9.2-27.4C157.9,194.4,179.5,206.8,185.9,209.7z"/>
<path id="_x30_b33ad1d-f45f-4704-8b1d-b0b523832c47" class="st6" d="M176.4,176.7c3.8,3.1,7.7,6.4,9.9,10.6c3,5.9,0.5,15.9-0.4,22.4
	c-10.6-3.9-19.5-10.9-30.1-14.8c-1.8-0.6-3.6-1.4-4.7-2.9s-0.9-3.1-0.8-4.8c0.2-4.2-1.7-26.8,2.6-28.4
	C156.6,157.4,173.3,174.1,176.4,176.7z"/>
<path id="_x32_4e51810-942c-44db-80d5-d6ddd6abbd26" class="st6" d="M219.6,395.6c-9,4.7-21,0.1-27.2-7.5s-8.3-17.3-10.7-26.5
	c-6.3-24.2-16.2-47.4-25.4-70.8c-9.4-23.9-14.9-47.5-21.5-71.9c-2.9-10.6-6.2-20.9,4-29.6c8.4-7.1,23-7.1,31,0.4
	c6.7,6.4,7.8,16,9.3,24.7c7.4,43.2,32.6,82.4,41.7,125.4"/>
<path id="e3f05074-c8c0-49eb-a2f7-b7cbd31f903f" class="st6" d="M214.8,348.2c32.1-31.3,74.6-69.1,103-103.2
	c4.7,2.5,9.5,5.1,13.2,8.8s6.3,8.6,5.7,13.6c-0.6,5.2-4.5,9.5-8.2,13.4l-53,56.4l-48.2,51.2c-3.6,3.8-7.4,7.7-12.5,9.4"/>
<polygon id="_x35_9caff77-b1c1-492c-a2f0-fa101efe18c0" class="st13" points="226.6,107.1 209,103.3 195.7,109.4 197.2,110.7 
	209.2,107 226.6,110.7 "/>
<path id="_x36_3c0f8c5-67b2-494f-a1f1-f588a75db777" class="st13" d="M211.1,128.4c2.7-0.1,5.3,0.6,7.7,1.8
	c-5.9,0.8-11.8,0.2-17.4-1.8c3.1-1,6.5-1.4,9.8-1"/>
<path id="c3d3106c-b938-4095-9cb7-e036e9d8eafa" class="st13" d="M200.3,127.1c0.1-0.1,4.8,0.3,5.4,0.3c1.9-0.1,3.8-0.4,5.7-0.9
	c3.7-0.9,7.1-2.6,10.1-5c1.1-0.9,4.8-4.4,4.8-4.4c-1.5-0.5-3.1-0.8-4.7-0.9c-3.9,0.2-7.7,1.1-11.3,2.8
	C206.3,120.9,202.9,123.7,200.3,127.1z"/>
<path id="e5a75032-d7c9-4ecd-a331-a892211ed6bc" class="st14" d="M224.2,121.7c0,0-21.9,6.3-23.6,5.8l1.7,0.6c0,0,9.8,2.3,12.1,1.3
	L224.2,121.7z"/>
<polygon id="_x32_834f509-b23b-41d2-9cd0-778e5888e376" class="st15" points="274.2,199.7 276.9,194.1 373.6,234.6 381.4,244.6 "/>
<path id="_x39_3c71124-b5c2-463f-88da-10e8cfc4b014" class="st6" d="M337.3,270.4c4.4-4.9,8.1-10.3,11-16.3c3-6.4,4.8-14.4,4-21.1
	c-0.2-1.3-0.3-2.7-0.2-4c0.4-2.3,1.8-4.2,2.2-6.4c0.3-2.5-0.8-4.3-1-6.6c-0.2-3.5,1.8-7.5,1.6-11.1c-0.2-3.4-2.4-5.2-4.6-4.6
	s-4.3,3-6,5.8s-3.1,6-4.8,8.8s-3.7,5.5-5.8,6.4c-1.7,0.7-3.4,0.4-5.1,0.4c-2-0.1-3.8,0.8-5,2.4c-2.4,3.2-2.5,8.7-3.8,13.1
	c-1,2.9-2.3,5.7-3.8,8.3c-1.5,2.8-2.3,5.8-2.5,8.9c0.1,1.7,0.4,3.4,1,5.1l3.8,12.2c1.1,3.5,2,9.4,3.7,11.9c1,1.5,1.8,0.2,3.3-1.2
	c1.4-1.2,2.7-2.5,4.1-3.8C332.1,276.2,334.7,273.4,337.3,270.4z"/>
<linearGradient id="SVGID_7_" gradientUnits="userSpaceOnUse" x1="427.825" y1="402.34" x2="427.825" y2="666.62" gradientTransform="matrix(1 0 0 -1 0 752)">
	<stop  offset="0" style="stop-color:#808080;stop-opacity:0.25"/>
	<stop  offset="0.54" style="stop-color:#808080;stop-opacity:0.12"/>
	<stop  offset="1" style="stop-color:#808080;stop-opacity:0.1"/>
</linearGradient>
<polygon class="st16" points="515.2,85.4 315.7,331.3 342.5,349.7 539.9,100.7 "/>
<linearGradient id="SVGID_8_" gradientUnits="userSpaceOnUse" x1="479.605" y1="402.34" x2="479.605" y2="551.6" gradientTransform="matrix(1 0 0 -1 0 752)">
	<stop  offset="0" style="stop-color:#808080;stop-opacity:0.25"/>
	<stop  offset="0.54" style="stop-color:#808080;stop-opacity:0.12"/>
	<stop  offset="1" style="stop-color:#808080;stop-opacity:0.1"/>
</linearGradient>
<polygon class="st17" points="535.5,335.3 466.3,230.3 480.6,213.7 458.4,200.4 420.3,247 440.5,260.2 451.5,247.5 500.9,335.3 
	377.4,335.3 377.4,349.7 581.8,349.7 581.8,335.3 "/>
<polygon id="ffbea8ad-c235-4397-80c0-2d40cb112a3f" class="st18" points="319.2,329.2 516.5,86.6 536.5,100.5 341.5,346.1 "/>
<polygon id="_x37_c4e4400-8a89-4bd8-ad31-fad4cfb123e9" class="st19" points="458.4,198.9 479.7,212 441.2,257.8 421.9,244.9 "/>
<polygon id="_x37_8ac201e-ef76-4c1c-815f-1e640f4bd5bc" class="st19" points="466,228.3 532.9,337.8 506.7,339.4 451,243.9 "/>
<rect id="_x37_90bbad8-bd49-415f-a3d1-4080b638ebe3" x="380.8" y="336.9" class="st19" width="195.8" height="9.2"/>
<linearGradient id="SVGID_9_" gradientUnits="userSpaceOnUse" x1="764.225" y1="-73" x2="764.225" y2="332.82" gradientTransform="matrix(1 0 0 -1 -255 677)">
	<stop  offset="0" style="stop-color:#808080;stop-opacity:0.25"/>
	<stop  offset="0.54" style="stop-color:#808080;stop-opacity:0.12"/>
	<stop  offset="1" style="stop-color:#808080;stop-opacity:0.1"/>
</linearGradient>
<path class="st20" d="M328.5,344.2v19.1h36v22.2h24v286.1h-17.1v26.8h19.4V750h26.8v-51.6h177.1V750h26.8v-51.6h19.1v-26.8h-18.8
	V385.5h25.7v-22.2H690v-19.1L328.5,344.2z M594.4,671.6H418.6V386.8h175.8V671.6z"/>
<rect id="_x39_34fbc91-4749-4282-b0ce-c59b9ae18af5" x="332.9" y="344.2" class="st2" width="353.3" height="18.9"/>
<rect id="e6d21c10-e3a6-48e5-812c-3a21c7e54c26" x="368" y="363.1" class="st1" width="276.4" height="22"/>
<rect id="_x39_b72e8a2-315d-42f8-9428-6bb56a63a4c6" x="391.4" y="385.1" class="st1" width="24.5" height="288.6"/>
<rect id="_x33_72ec2b5-a502-48ef-be85-3cee48c69169" x="596.5" y="385.1" class="st1" width="22.8" height="288.6"/>
<rect id="_x39_3a541b1-5244-4db5-9056-0628478d9df9" x="374.7" y="673.7" class="st1" width="263" height="21.5"/>
<rect id="e88c193b-f3a6-4168-b1e0-ced07e7df2eb" x="597.8" y="695.2" class="st1" width="21.2" height="51.2"/>
<rect id="_x37_480fcde-a0a4-4ec2-9e15-c42998372cc4" x="393.6" y="695.2" class="st1" width="21.2" height="51.2"/>
<path id="f8aa1478-56a0-4597-a117-3ae269503f9b" class="st3" d="M144.2,186.9c-14.6,2.1-22.7,17.7-21.3,31.2s9.4,25.5,15.7,37.7
	c14,27.2,20.1,57.1,26.1,86.6c16.6-19.4,33.7-39.9,38.1-64.3c3.6-20.4-2.5-41.5-14.2-58.9C179.6,205.8,164.4,184,144.2,186.9z"/>
<path id="_x35_41eb892-9cae-43c7-8ad8-efa69785ea69" class="st21" d="M220.1,77.4c0.4,8.2,5.7,16.2,13.5,20.2
	c8.2,4,17.7,3.9,25.8-0.2l1.1,8.3c4.2,0.9,7.5,4,8.9,8h23c-10.2-1.1-18-11.5-15.5-20.6c-8.1,4.3-19.2,3.3-26.2-2.4
	S241.3,74.9,245,67c-31.3-8.1-61.3-20.3-89.4-36.2c-9.1-5.2-19.9-10.9-29.8-7.3c-6,2.1-12.4,7.4-17.6,4.1c-3.3-2.1-3.6-6.4-5.9-9.5
	c-4.3-5.7-13.4-5-20.9-4.8S64,10.5,64.1,3.6c-2.4,5.5-1,11.9,3.6,15.8c4.9,3.9,11.7,4.8,17.4,2.1l5.4,14
	c-21.4,3.1-39.6,19.9-43,39.5s8.3,40.8,27.7,49.8c-9.8-2.6-19.7,3.3-27.9,8.8L6.4,161.1c15.6,3.8,33.4-1.9,42.9-13.8
	c2.2-2.8,4.6-6.2,8.3-6.6c4.4-0.5,7.8,3.4,12,4.8c6,2,12.3-1.5,18.2-3.8c13.6-5.1,28.6-4.1,41.4,2.8c12.3,6.8,20.7,19.3,21.9,32.4
	c0.5,5,0,10.1,2.1,14.7c1.7,3.8,5,6.8,7.2,10.4c3.5,5.7,4.1,12.5,7,18.5s10,11.4,16.7,9c-3.2,0.5-5.1-3.5-4.4-6.4s3-5.4,3.5-8.3
	c0.9-4.6-2.3-8.9-4.9-13c-8.2-13.1-10.2-28.6-12.1-43.6c-0.7-5.8-1.4-11.7,0.3-17.2s6.3-10.8,12.5-11.7c-9.8,6.9-7.7,23.4,3.5,28.1
	c4,1.7,8.8,2.1,11.9,5c3.4,3.2,3.3,8.4,2.6,12.9s-1.5,9.4,1,13.3s10,4.9,11.9,0.7c6-13.4-8.8-26.8-11.6-41.1
	c-1.6-8.2,0.9-16.7,0.8-25c-0.1-10.5-12.3-17.4-10.9-25.3C190,87.4,210.4,78.9,220.1,77.4z"/>
<g id="_x38_8e47374-17f8-4c81-ad59-cca7930ebbb1">
	<g id="_x31_4cda41f-c0db-4c69-bed7-4144fdca84b9">
		
			<linearGradient id="SVGID_10_" gradientUnits="userSpaceOnUse" x1="413.3" y1="518.63" x2="413.3" y2="619.61" gradientTransform="matrix(1 0 0 -1 -255 677)">
			<stop  offset="0" style="stop-color:#808080;stop-opacity:0.25"/>
			<stop  offset="0.54" style="stop-color:#808080;stop-opacity:0.12"/>
			<stop  offset="1" style="stop-color:#808080;stop-opacity:0.1"/>
		</linearGradient>
		<path class="st22" d="M201,57.4c0,0-83,14-99.1,90.2c0,0,18.5-8.4,37.6,10.8c0,0-3.5-31.2,75.3-91.4L201,57.4z"/>
	</g>
	<g id="_x35_bdfec83-34f1-4b16-b4eb-114da2c67497">
		
			<linearGradient id="SVGID_11_" gradientUnits="userSpaceOnUse" x1="456.7387" y1="615.1473" x2="456.7387" y2="651.25" gradientTransform="matrix(1 0 0 -1 -255 677)">
			<stop  offset="0" style="stop-color:#808080;stop-opacity:0.25"/>
			<stop  offset="0.54" style="stop-color:#808080;stop-opacity:0.12"/>
			<stop  offset="1" style="stop-color:#808080;stop-opacity:0.1"/>
		</linearGradient>
		<path class="st23" d="M192.9,47.3c5.8,9.9,14.1,16.2,18.5,14.1s3.2-11.7-2.6-21.6s-18.5-14.1-18.5-14.1S187.1,37.5,192.9,47.3z"/>
	</g>
	<g id="_x35_c45504c-693e-43a2-87a8-ab884f896d5d">
		
			<linearGradient id="SVGID_12_" gradientUnits="userSpaceOnUse" x1="463.9088" y1="623.1674" x2="463.9088" y2="659.27" gradientTransform="matrix(1 0 0 -1 -255 677)">
			<stop  offset="0" style="stop-color:#808080;stop-opacity:0.25"/>
			<stop  offset="0.54" style="stop-color:#808080;stop-opacity:0.12"/>
			<stop  offset="1" style="stop-color:#808080;stop-opacity:0.1"/>
		</linearGradient>
		<path class="st24" d="M200.1,39.3c5.8,9.9,14.1,16.2,18.5,14.1s3.2-11.7-2.6-21.6s-18.5-14.1-18.5-14.1S194.3,29.5,200.1,39.3z"/>
	</g>
	<g id="_x31_1d74386-ab73-4b42-81bb-1a2e8d1bb6f3">
		
			<linearGradient id="SVGID_13_" gradientUnits="userSpaceOnUse" x1="496.8687" y1="604.1533" x2="496.8687" y2="625.6769" gradientTransform="matrix(1 0 0 -1 -255 677)">
			<stop  offset="0" style="stop-color:#808080;stop-opacity:0.25"/>
			<stop  offset="0.54" style="stop-color:#808080;stop-opacity:0.12"/>
			<stop  offset="1" style="stop-color:#808080;stop-opacity:0.1"/>
		</linearGradient>
		<path class="st25" d="M246.1,55.7c-11.1-5-22-5.8-24.2-1.8s5,11.2,16.2,16.2s24.2,1.8,24.2,1.8S257.2,60.7,246.1,55.7z"/>
	</g>
	<g id="_x32_df90b7f-72d7-49ba-8bdc-dc6314459125">
		
			<linearGradient id="SVGID_14_" gradientUnits="userSpaceOnUse" x1="496.8687" y1="597.7433" x2="496.8687" y2="619.2669" gradientTransform="matrix(1 0 0 -1 -255 677)">
			<stop  offset="0" style="stop-color:#808080;stop-opacity:0.25"/>
			<stop  offset="0.54" style="stop-color:#808080;stop-opacity:0.12"/>
			<stop  offset="1" style="stop-color:#808080;stop-opacity:0.1"/>
		</linearGradient>
		<path class="st26" d="M246.1,62.1c-11.1-5-22-5.8-24.2-1.8s5,11.2,16.2,16.2s24.2,1.8,24.2,1.8S257.2,67.1,246.1,62.1z"/>
	</g>
	<g id="_x37_ceb9df1-944c-4c6b-aa71-f8b4ceb003f5">
		
			<linearGradient id="SVGID_15_" gradientUnits="userSpaceOnUse" x1="473.0872" y1="607.519" x2="473.0872" y2="631.111" gradientTransform="matrix(1 0 0 -1 -255 677)">
			<stop  offset="0" style="stop-color:#808080;stop-opacity:0.25"/>
			<stop  offset="0.54" style="stop-color:#808080;stop-opacity:0.12"/>
			<stop  offset="1" style="stop-color:#808080;stop-opacity:0.1"/>
		</linearGradient>
		<path class="st27" d="M205.6,67.1c3.7,3.9,12.3,2.8,19.2-2.4s9.5-12.6,5.8-16.5s-12.3-2.8-19.2,2.4
			C204.5,55.8,201.9,63.2,205.6,67.1z"/>
	</g>
</g>
<g id="_x36_db6af73-72c8-4354-a470-b4bfeda03afa">
	<path id="_x39_042c747-c959-4ed1-806e-42a761bb7786" class="st11" d="M197.5,57.9c0,0-77.5,13.4-92.5,86.3c0,0,17.2-8.1,35.1,10.3
		c0,0-3.3-29.9,70.2-87.5L197.5,57.9z"/>
	<path id="_x32_1f4f02a-5a2d-46ea-99ab-5ced5aa61997" class="st11" d="M189.9,48.3c5.4,9.4,13.1,15.5,17.2,13.5s3-11.2-2.4-20.7
		s-17.2-13.5-17.2-13.5S184.5,38.8,189.9,48.3z"/>
	<path id="_x39_9a88b69-1579-48dc-8bf2-f6af4ba2f120" class="st11" d="M196.6,40.6c5.4,9.4,13.1,15.5,17.2,13.5s3-11.2-2.4-20.7
		s-17.2-13.5-17.2-13.5S191.2,31.2,196.6,40.6z"/>
	<path id="_x34_b805645-f1ac-4f4a-9520-1255b7368952" class="st11" d="M239.5,56.2c-10.4-4.8-20.5-5.6-22.6-1.8s4.7,10.7,15.1,15.5
		s22.6,1.8,22.6,1.8S249.9,61,239.5,56.2z"/>
	<path id="e799353d-a6c4-4000-b9ff-2f519e97057e" class="st11" d="M239.5,62.4c-10.4-4.8-20.5-5.6-22.6-1.8s4.7,10.7,15.1,15.5
		s22.6,1.8,22.6,1.8S249.9,67.2,239.5,62.4z"/>
	<path id="_x38_7635640-51a7-4eec-ad1a-3454ccfda9b7" class="st11" d="M201.8,67.2c3.4,3.7,11.4,2.7,17.9-2.3s8.9-12.1,5.4-15.8
		s-11.4-2.7-17.9,2.3S198.3,63.5,201.8,67.2z"/>
</g>
</svg>
