<?xml version="1.0" encoding="utf-8"?>
<!-- Generator: Adobe Illustrator 21.0.2, SVG Export Plug-In . SVG Version: 6.00 Build 0)  -->
<svg version="1.1" id="Layer_1" xmlns="http://www.w3.org/2000/svg" xmlns:xlink="http://www.w3.org/1999/xlink" x="0px" y="0px"
	 viewBox="0 0 158 27" style="enable-background:new 0 0 158 27;" xml:space="preserve">
<style type="text/css">
	.st0{fill:#615868;}
	.st1{fill:#A08179;}
</style>
<g>
	<path class="st0" d="M8.8,18L8.8,18l2.4-15.9h4.9v22.4h-3.3V8.4h-0.1l-2.4,16.1H7L4.4,8.7H4.4v15.8H1.3V2.1h4.9L8.8,18z"/>
	<path class="st0" d="M18.4,7.5c0-3.6,1.9-5.6,5.3-5.6c3.5,0,5.3,2,5.3,5.6v11.6c0,3.6-1.9,5.6-5.3,5.6c-3.5,0-5.3-2-5.3-5.6V7.5z
		 M21.9,19.3c0,1.6,0.7,2.2,1.8,2.2c1.1,0,1.8-0.6,1.8-2.2V7.3c0-1.6-0.7-2.2-1.8-2.2c-1.1,0-1.8,0.6-1.8,2.2V19.3z"/>
	<path class="st0" d="M34.5,8.3L34.5,8.3l-0.1,16.2h-3.2V2.1h4.4l3.6,13.4h0.1V2.1h3.1v22.4h-3.6L34.5,8.3z"/>
	<path class="st0" d="M45,2.1h3.5v22.4H45V2.1z"/>
	<path class="st0" d="M61.3,16.1v3c0,3.6-1.8,5.6-5.2,5.6c-3.5,0-5.2-2-5.2-5.6V7.5c0-3.6,1.8-5.6,5.2-5.6c3.5,0,5.2,2,5.2,5.6v2.2
		h-3.3V7.3c0-1.6-0.7-2.2-1.8-2.2c-1.1,0-1.8,0.6-1.8,2.2v12.1c0,1.6,0.7,2.2,1.8,2.2c1.1,0,1.8-0.6,1.8-2.2v-3.2H61.3z"/>
	<path class="st0" d="M74.8,24.5h-3.6l-0.6-4.1h-4.3l-0.6,4.1h-3.2l3.6-22.4h5.2L74.8,24.5z M66.8,17.4h3.4L68.5,6.1h-0.1L66.8,17.4
		z"/>
	<path class="st1" d="M91.8,7.6v2.9c0,3.6-1.7,5.5-5.2,5.5h-1.7v8.4h-3.5V2.1h5.2C90.1,2.1,91.8,4.1,91.8,7.6z M84.9,5.3v7.6h1.7
		c1.1,0,1.7-0.5,1.7-2.1V7.4c0-1.6-0.6-2.1-1.7-2.1H84.9z"/>
	<path class="st1" d="M93.2,7.5c0-3.6,1.9-5.6,5.3-5.6c3.5,0,5.3,2,5.3,5.6v11.6c0,3.6-1.9,5.6-5.3,5.6c-3.5,0-5.3-2-5.3-5.6V7.5z
		 M96.7,19.3c0,1.6,0.7,2.2,1.8,2.2c1.1,0,1.8-0.6,1.8-2.2V7.3c0-1.6-0.7-2.2-1.8-2.2c-1.1,0-1.8,0.6-1.8,2.2V19.3z"/>
	<path class="st1" d="M114,12.6L114,12.6l-1.3,11.9h-4.8l-2.5-22.4h3.4l1.9,17.7h0.1l1.7-17.7h3.4l1.7,17.8h0.1l1.8-17.8h3.1
		l-2.5,22.4h-4.7L114,12.6z"/>
	<path class="st1" d="M127.7,11.5h4.8v3.2h-4.8v6.6h6.1v3.2h-9.6V2.1h9.6v3.2h-6.1V11.5z"/>
	<path class="st1" d="M135.9,2.1h3.5v19.2h5.8v3.2h-9.3V2.1z"/>
	<path class="st1" d="M146.8,2.1h3.5v19.2h5.8v3.2h-9.3V2.1z"/>
</g>
</svg>
